<svg xmlns="http://www.w3.org/2000/svg" width="100" height="100" viewBox="0 0 100 100" fill="none">
  <g clip-path="url(#clip0_2897_7054)">
    <path d="M50 100C77.6142 100 100 77.6142 100 50C100 22.3858 77.6142 0 50 0C22.3858 0 0 22.3858 0 50C0 77.6142 22.3858 100 50 100Z" fill="#004AAC"/>
    <path d="M30.5613 56.3218L30.2522 57.4418L30.0122 56.2981L28.8867 55.9963L30.0467 55.8218L30.3322 54.6309L30.554 55.8618L31.6976 56.0763L30.5613 56.3218Z" fill="#FFBA3A"/>
    <path d="M24.6973 52.09L24.21 53.8481L23.8337 52.0518L22.0664 51.5772L23.8864 51.3045L24.3355 49.4336L24.6864 51.3645L26.4791 51.7045L24.6973 52.09Z" fill="#FFBA3A"/>
    <path d="M66.4418 27.0791L66.0963 28.3245L65.8308 27.0518L64.5781 26.7173L65.869 26.5227L66.1872 25.1973L66.4345 26.5664L67.7054 26.8064L66.4418 27.0791Z" fill="#FFBA3A"/>
    <path d="M28.0343 34.9185L27.8616 35.5422L27.727 34.9058L27.1016 34.7367L27.747 34.6403L27.9052 33.9785L28.0288 34.6622L28.6652 34.7822L28.0343 34.9185Z" fill="#FFBA3A"/>
    <path d="M62.428 39.4236L62.2717 39.9836L62.1535 39.4127L61.5898 39.2618L62.1698 39.1745L62.3117 38.5781L62.4244 39.1927L62.9953 39.3018L62.428 39.4236Z" fill="#FFBA3A"/>
    <path d="M50.6734 22.9441L50.4279 23.8277L50.2388 22.9259L49.3516 22.6877L50.2661 22.5495L50.4916 21.6113L50.6661 22.5804L51.5679 22.7513L50.6734 22.9441Z" fill="#FFBA3A"/>
    <path d="M30.4188 44.3439L30.2734 44.8639L30.1624 44.3312L29.6406 44.1912L30.1788 44.1112L30.3115 43.5566L30.4152 44.1294L30.9461 44.2294L30.4188 44.3439Z" fill="#FFBA3A"/>
    <path d="M64.3989 36.9226L64.2443 37.4826L64.1243 36.9117L63.5625 36.7608L64.1425 36.6735L64.2843 36.0771L64.3952 36.6917L64.9661 36.8008L64.3989 36.9226Z" fill="#FFBA3A"/>
    <path d="M71.1571 46.969L71.0135 47.489L70.9007 46.9581L70.3789 46.8181L70.9171 46.7363L71.0498 46.1836L71.1535 46.7545L71.6844 46.8545L71.1571 46.969Z" fill="#FFBA3A"/>
    <path d="M40.7422 31.0274L40.5022 31.8892L40.3186 31.0074L39.4531 30.7765L40.3459 30.6419L40.5659 29.7256L40.7368 30.671L41.6149 30.8383L40.7422 31.0274Z" fill="#FFBA3A"/>
    <path d="M81.184 69.7097L81.0295 70.2697L80.9095 69.6988L80.3477 69.5479L80.9277 69.4606L81.0695 68.8643L81.1822 69.4806L81.7531 69.5879L81.184 69.7097Z" fill="#FFBA3A"/>
    <path d="M77.8837 41.6712L77.74 42.193L77.6291 41.6603L77.1055 41.5203L77.6455 41.4403L77.7782 40.8857L77.8818 41.4567L78.4127 41.5585L77.8837 41.6712Z" fill="#FFBA3A"/>
    <path d="M73.9293 58.6733L73.6602 59.6442L73.4529 58.6515L72.4766 58.3897L73.482 58.2388L73.7311 57.2061L73.9238 58.2715L74.9147 58.4588L73.9293 58.6733Z" fill="#FFBA3A"/>
    <path d="M49.9982 3.71289C24.4346 3.71289 3.71094 24.4365 3.71094 50.0002C3.71094 75.5638 24.4346 96.2874 49.9982 96.2874C75.5619 96.2874 96.2855 75.5638 96.2855 50.0002C96.2855 24.4365 75.5619 3.71289 49.9982 3.71289ZM49.9982 80.8293C32.9709 80.8293 19.1691 67.0256 19.1691 50.0002C19.1691 32.9747 32.9728 19.1711 49.9982 19.1711C67.0237 19.1711 80.8273 32.9747 80.8273 50.0002C80.8273 67.0256 67.0237 80.8293 49.9982 80.8293Z" fill="white"/>
    <path d="M25.0545 20.26C23.8272 18.5182 24.2872 16.3309 26.0854 15.0618C27.0836 14.3582 28.1745 14.1345 29.1836 14.4109L28.8836 15.8073C28.1818 15.6345 27.5309 15.7473 26.9545 16.1545C25.8727 16.9163 25.64 18.2163 26.4091 19.3054C27.1763 20.3945 28.48 20.6127 29.56 19.8509C30.1382 19.4436 30.4618 18.8691 30.5291 18.1418L31.9454 18.3291C31.8709 19.3818 31.2945 20.3327 30.2872 21.0418C28.4963 22.3036 26.2818 22 25.0545 20.2582V20.26Z" fill="#004AAC"/>
    <path d="M38.6482 12.4582L40.1009 16.0418L38.5845 16.6563L37.9482 15.0836L34.9536 16.2982L35.59 17.8709L34.0936 18.4782L32.6409 14.8945C31.8336 12.9018 32.5991 11.3272 34.3972 10.5982C36.1936 9.86907 37.8409 10.4654 38.6482 12.4582ZM37.4554 13.8672L37.0754 12.9309C36.6245 11.8182 35.8082 11.5272 34.91 11.8909C34.0027 12.2582 33.63 13.0309 34.0809 14.1454L34.4609 15.0818L37.4554 13.8672Z" fill="#004AAC"/>
    <path d="M47.6363 10.0823C47.88 11.6387 46.8654 12.7896 45 13.0823L43.5927 13.3023L43.8945 15.2277L42.2781 15.4805L41.1836 8.49683L44.2054 8.02229C46.0709 7.72956 47.389 8.51502 47.6345 10.0805L47.6363 10.0823ZM46 10.3387C45.88 9.57138 45.3109 9.20047 44.3218 9.35502L43.0054 9.56229L43.3854 11.9859L44.7018 11.7787C45.689 11.6241 46.1181 11.0968 45.9981 10.3387H46Z" fill="#004AAC"/>
    <path d="M52.8014 8.89498L52.6633 13.335L53.8851 13.3732L53.8451 14.6859L49.7578 14.5586L49.7978 13.2459L51.0287 13.2841L51.1669 8.84407L49.936 8.80589L49.976 7.49316L54.0633 7.62044L54.0233 8.93316L52.8014 8.89498Z" fill="#004AAC"/>
    <path d="M61.8687 10.966C61.3487 10.4951 60.7705 10.1478 60.1014 9.90419L58.9178 15.546L57.3178 15.2096L58.5014 9.56782C57.7996 9.52419 57.1214 9.60783 56.4451 9.82783L56.1523 8.51873C57.2305 8.14601 58.4269 8.09873 59.5833 8.34055C60.7487 8.58601 61.836 9.11328 62.6633 9.88419L61.8687 10.966Z" fill="#004AAC"/>
    <path d="M70.0393 15.5529L68.4666 19.0856L66.9721 18.4202L67.6612 16.8711L64.7102 15.5565L64.0193 17.1056L62.543 16.4474L64.1157 12.9147C64.9902 10.9511 66.6575 10.4111 68.4284 11.1983C70.1993 11.9856 70.9121 13.5874 70.0375 15.5511L70.0393 15.5529ZM68.1957 15.6711L68.6066 14.7492C69.0957 13.6511 68.7393 12.8638 67.8539 12.4692C66.9593 12.0711 66.1448 12.3383 65.6557 13.4347L65.2448 14.3565L68.1957 15.6711Z" fill="#004AAC"/>
    <path d="M74.5625 14.626L75.8807 15.5932L72.4862 20.2169L75.3425 22.3132L74.5535 23.3878L70.3789 20.3223L74.5607 14.626H74.5625Z" fill="#004AAC"/>
    <path d="M8.19815 49.5144H7.28906C7.28906 47.898 7.93452 46.9653 7.96179 46.9271L8.09815 46.7344H8.33452C9.41452 46.7344 10.3218 47.498 10.36 47.5289L9.77088 48.2216L10.0654 47.8762L9.77088 48.2235C9.77088 48.2235 9.22361 47.7689 8.58724 47.6653C8.43815 47.9744 8.19815 48.6126 8.19815 49.5162V49.5144Z" fill="#FFBA3A"/>
    <path d="M13.5608 47.3886H12.6517C12.6517 46.3105 11.6535 45.4141 11.1808 45.0505C10.7081 45.4141 9.70987 46.3105 9.70987 47.3886H8.80078C8.80078 45.4796 10.8499 44.1632 10.9371 44.1068L11.1808 43.9541L11.4244 44.1068C11.5117 44.1614 13.5608 45.4796 13.5608 47.3886Z" fill="#FFBA3A"/>
    <path d="M13.5608 49.9869H12.6517C12.6517 48.7233 11.6553 47.7779 11.1808 47.3997C10.7081 47.7779 9.70987 48.7233 9.70987 49.9869H8.80078C8.80078 47.8342 10.8499 46.5088 10.9371 46.4524L11.1808 46.2979L11.4244 46.4524C11.5117 46.5069 13.5608 47.8324 13.5608 49.9869Z" fill="#FFBA3A"/>
    <path d="M11.1817 54.2087C7.77629 54.2087 6.63629 51.1268 6.51084 49.4959L6.47266 49.0068H6.96357C9.33084 49.0068 10.5945 50.2414 11.1817 51.0832C11.769 50.2414 13.0327 49.0068 15.3999 49.0068H15.8908L15.8527 49.4959C15.7272 51.125 14.5872 54.2087 11.1817 54.2087ZM7.49629 49.9414C7.71447 50.9996 8.49811 53.2996 11.1817 53.2996C12.6108 53.2996 13.6763 52.6596 14.3472 51.3941C14.6327 50.8577 14.7854 50.3196 14.8654 49.9414C12.4145 50.1868 11.6399 52.085 11.6072 52.1723L11.1781 53.2632L10.7581 52.1705C10.7254 52.0868 9.94902 50.1868 7.49811 49.9414H7.49629Z" fill="#FFBA3A"/>
    <path d="M15.0748 49.5144H14.1657C14.1657 48.6107 13.9275 47.9744 13.7766 47.6635C13.1403 47.7671 12.5985 48.2162 12.593 48.2216L12.0039 47.5289C12.0421 47.4962 12.9494 46.7344 14.0294 46.7344H14.2657L14.4021 46.9271C14.4294 46.9653 15.0748 47.898 15.0748 49.5144Z" fill="#FFBA3A"/>
    <path d="M11.6357 53.7539H10.7266V55.5085H11.6357V53.7539Z" fill="#FFBA3A"/>
    <path d="M85.0497 49.5144H84.1406C84.1406 47.898 84.7861 46.9653 84.8133 46.9271L84.9497 46.7344H85.1861C86.2661 46.7344 87.1733 47.498 87.2115 47.5289L86.6224 48.2216L86.917 47.8762L86.6224 48.2235C86.6224 48.2235 86.0752 47.7689 85.4388 47.6653C85.2897 47.9744 85.0497 48.6107 85.0497 49.5162V49.5144Z" fill="#FFBA3A"/>
    <path d="M90.4144 47.3886H89.5053C89.5053 46.3214 88.5053 45.4177 88.0344 45.0505C87.5617 45.4159 86.5653 46.3105 86.5653 47.3886H85.6562C85.6562 45.4796 87.7053 44.1632 87.7926 44.1068L88.0362 43.9541L88.2799 44.1068C88.3672 44.1614 90.4162 45.4796 90.4162 47.3886H90.4144Z" fill="#FFBA3A"/>
    <path d="M90.4144 49.9869H89.5053C89.5053 48.716 88.509 47.7742 88.0362 47.3997C87.5635 47.776 86.5653 48.7233 86.5653 49.9869H85.6562C85.6562 47.8342 87.7053 46.5088 87.7926 46.4524L88.0362 46.2979L88.2799 46.4524C88.3672 46.5069 90.4162 47.8324 90.4162 49.9869H90.4144Z" fill="#FFBA3A"/>
    <path d="M88.0333 54.2087C84.6279 54.2087 83.4879 51.1268 83.3624 49.4959L83.3242 49.0068H83.8151C86.1824 49.0068 87.446 50.2414 88.0333 51.0832C88.6206 50.2414 89.8842 49.0068 92.2515 49.0068H92.7424L92.7042 49.4959C92.5788 51.125 91.4388 54.2087 88.0333 54.2087ZM84.3479 49.9414C84.566 50.9996 85.3497 53.2996 88.0333 53.2996C90.7169 53.2996 91.5006 50.9996 91.7188 49.9414C89.266 50.1868 88.4915 52.085 88.4569 52.1723L88.0279 53.2632L87.6079 52.1705C87.5751 52.0868 86.7988 50.1868 84.346 49.9414H84.3479Z" fill="#FFBA3A"/>
    <path d="M91.9264 49.5144H91.0173C91.0173 48.6107 90.7791 47.9744 90.6282 47.6635C89.9918 47.7671 89.45 48.2162 89.4446 48.2216L88.8555 47.5289C88.8937 47.4962 89.8009 46.7344 90.8809 46.7344H91.1173L91.2537 46.9271C91.2809 46.9653 91.9264 47.898 91.9264 49.5144Z" fill="#FFBA3A"/>
    <path d="M88.4872 53.7539H87.5781V55.5085H88.4872V53.7539Z" fill="#FFBA3A"/>
    <path d="M13.7826 65.3114C15.6517 64.2896 17.7753 64.9932 18.8298 66.9259C19.4153 67.9987 19.5153 69.1059 19.1262 70.0787L17.7717 69.6223C18.0226 68.9441 17.9844 68.2859 17.6462 67.6659C17.0117 66.5059 15.7462 66.1259 14.5771 66.7659C13.408 67.4059 13.0426 68.675 13.6771 69.835C14.0153 70.455 14.5498 70.8423 15.2644 70.9932L14.9171 72.3805C13.8789 72.1877 13.0007 71.5059 12.4098 70.4259C11.3589 68.5023 11.9117 66.3368 13.7826 65.315V65.3114Z" fill="#004AAC"/>
    <path d="M21.4839 80.7899C20.6875 80.6136 19.753 80.0263 18.9657 79.2008C17.4548 77.6154 17.3093 76.1754 18.1948 75.3336C18.7511 74.8045 19.502 74.7299 20.1948 75.0463C20.0239 74.4427 20.1948 73.8463 20.6548 73.4081C21.4584 72.6427 22.8639 72.6972 24.362 74.2681C25.002 74.9408 25.4911 75.7299 25.7093 76.4154L24.4893 76.9499C24.262 76.2736 23.9057 75.7081 23.4457 75.2245C22.693 74.4354 22.0893 74.3281 21.7166 74.6827C21.3657 75.0172 21.3984 75.4608 21.9057 75.9936L23.2366 77.3899L22.3002 78.2808L20.9002 76.8118C20.342 76.2263 19.8111 76.079 19.4166 76.4554C19.0293 76.8245 19.1275 77.4554 19.9711 78.3408C20.542 78.9408 21.3311 79.4299 22.0275 79.5754L21.4839 80.7899Z" fill="#004AAC"/>
    <path d="M28.9176 86.726L28.7758 84.3369L28.7067 84.2951L27.4903 83.5551L26.4685 85.2369L25.0703 84.3878L28.7412 78.3496L31.3558 79.9387C32.9685 80.9187 33.4703 82.3696 32.6467 83.7242C32.0958 84.6296 31.2358 85.0169 30.2449 84.8751L30.4194 87.6387L28.9176 86.726ZM30.5849 81.0296L29.4467 80.3369L28.1667 82.4423L29.3049 83.1351C30.1594 83.6532 30.8321 83.5187 31.2303 82.8642C31.6339 82.2005 31.4394 81.5496 30.5849 81.0296Z" fill="#004AAC"/>
    <path d="M43.8223 84.7128L38.9932 90.7128L37.435 90.2837L36.375 82.6582L38.0786 83.1273L38.8095 88.5655L42.255 84.2782L43.8223 84.7109V84.7128Z" fill="#004AAC"/>
    <path d="M52.3373 91.468C51.6536 91.9117 50.5791 92.1662 49.4372 92.148C47.2463 92.1117 46.1209 91.2062 46.1409 89.9844C46.1536 89.2171 46.6282 88.6298 47.3391 88.3571C46.7882 88.0553 46.4845 87.5153 46.4954 86.8789C46.5136 85.768 47.5391 84.8062 49.71 84.8407C50.6391 84.8553 51.5445 85.0626 52.1845 85.3862L51.71 86.6317C51.0682 86.3189 50.4154 86.1771 49.7482 86.1662C48.6572 86.148 48.1572 86.5044 48.1482 87.0189C48.1409 87.5044 48.4791 87.7917 49.2154 87.8044L51.1445 87.8353L51.1227 89.128L49.0936 89.0953C48.2863 89.0826 47.8063 89.3571 47.7973 89.9026C47.7882 90.4371 48.3082 90.8098 49.53 90.8298C50.3573 90.8426 51.2609 90.6262 51.8518 90.2317L52.3373 91.4717V91.468Z" fill="#004AAC"/>
    <path d="M55.9707 88.1005C55.4435 86.0368 56.6526 84.155 58.7853 83.6114C59.9689 83.3096 61.0671 83.4877 61.9126 84.1059L61.1344 85.3041C60.5398 84.8932 59.8926 84.7659 59.2089 84.9405C57.9271 85.2677 57.2471 86.3986 57.5762 87.6914C57.9053 88.9823 59.0453 89.6514 60.3271 89.3241C61.0126 89.1496 61.5198 88.7277 61.8417 88.0732L63.098 88.7532C62.6544 89.7096 61.7762 90.3932 60.5835 90.6968C58.4598 91.2386 56.4998 90.1659 55.9726 88.1023L55.9707 88.1005Z" fill="#004AAC"/>
    <path d="M72.8716 84.4512C72.5062 85.1785 71.708 85.9421 70.7134 86.5039C68.8044 87.5803 67.3753 87.3675 66.7753 86.3021C66.3989 85.633 66.5098 84.8875 66.9862 84.293C66.3589 84.3112 65.8225 83.9985 65.5098 83.4439C64.9643 82.4766 65.3625 81.1275 67.2534 80.0603C68.0625 79.6039 68.948 79.3239 69.6644 79.2803L69.8843 80.593C69.1734 80.6457 68.5371 80.8548 67.9571 81.1821C67.008 81.7185 66.7553 82.2766 67.008 82.7257C67.2462 83.1475 67.6844 83.2257 68.3262 82.8639L70.0062 81.9166L70.6407 83.0421L68.8734 84.0385C68.1698 84.4348 67.8953 84.9148 68.1625 85.3894C68.4262 85.8548 69.0607 85.9148 70.1262 85.313C70.848 84.9057 71.5153 84.2621 71.828 83.6239L72.8734 84.4494L72.8716 84.4512Z" fill="#004AAC"/>
    <path d="M80.4524 78.6911L78.0997 78.2438L78.0415 78.3002L77.027 79.2984L78.407 80.702L77.2415 81.8493L72.2852 76.8111L74.4652 74.6657C75.8106 73.342 77.3397 73.2111 78.4524 74.3402C79.1961 75.0966 79.3597 76.0257 78.9815 76.9511L81.7052 77.4584L80.4524 78.6911ZM75.3361 75.6802L74.387 76.6147L76.1142 78.3711L77.0633 77.4366C77.7761 76.7347 77.8106 76.0511 77.2724 75.5038C76.727 74.9493 76.0488 74.9802 75.3361 75.6802Z" fill="#004AAC"/>
    <path d="M84.7516 65.6569L88.1207 67.5533L87.3189 68.9788L85.8407 68.146L84.2552 70.9606L85.7334 71.7933L84.9407 73.2006L81.5716 71.3042C79.697 70.2497 79.317 68.5406 80.268 66.8515C81.2189 65.1624 82.8789 64.6024 84.7516 65.6569ZM84.697 67.5024L83.817 67.0079C82.7698 66.4188 81.9516 66.6988 81.477 67.5442C80.997 68.3969 81.1861 69.2333 82.2334 69.8242L83.1134 70.3188L84.6989 67.5042L84.697 67.5024Z" fill="#004AAC"/>
    <path d="M38.8308 67.8965C38.3563 67.8965 37.6726 67.5292 37.1799 67.2129C36.1763 66.5674 35.6417 65.5892 35.6381 64.3892C35.6217 58.9402 35.6235 53.4911 35.6308 48.042C35.6308 47.7074 35.569 47.5492 35.2017 47.4547C34.0217 47.1529 33.1872 46.0765 33.1744 44.802C33.149 42.122 33.1199 39.4401 33.1799 36.7601C33.2399 34.1111 35.6635 32.3856 38.2344 33.0711C38.3053 33.0892 38.3781 33.102 38.4635 33.1183C38.9381 31.0474 40.1453 29.6892 42.2581 29.3056C44.0926 28.9729 45.5563 29.6529 46.8908 31.3492C47.0017 31.3056 47.1253 31.2565 47.249 31.2056C49.049 30.4656 51.0381 30.9038 52.3508 32.3456C52.5399 32.5529 52.6853 32.5838 52.9581 32.4929C54.5672 31.9565 56.2272 32.4965 57.3308 33.8874C58.2781 35.0802 58.3581 36.7638 57.5417 38.1765C57.4817 38.2802 57.4526 38.4274 57.4672 38.5474C57.5144 38.9292 57.6272 39.3074 57.6417 39.6892C57.6708 40.442 57.6508 41.1947 57.6508 41.9856C57.8126 41.9947 57.9453 42.0074 58.0781 42.0074C59.3617 42.0074 60.6472 42.0292 61.929 42.0038C64.909 41.9456 66.2508 43.7638 66.6817 46.0511C66.789 46.6165 66.8363 47.2001 66.8399 47.7765C66.8544 51.1111 66.8472 54.4474 66.8453 57.782C66.8453 58.7565 66.7163 59.7129 66.3744 60.6311C65.6799 62.4983 64.229 63.4747 62.1108 63.4911C60.7763 63.502 59.4417 63.4929 58.1072 63.4929C57.9708 63.4929 57.8344 63.4929 57.6872 63.4929C57.6508 64.0001 57.6672 64.4838 57.5744 64.9438C57.2653 66.4747 56.3108 67.4092 54.809 67.8001C54.7163 67.8238 54.6253 67.8638 54.5344 67.8947H38.8235L38.8308 67.8965ZM38.9017 42.9056C38.9017 43.5129 38.909 44.0892 38.9017 44.6638C38.8853 45.7674 38.4235 46.6183 37.4726 47.2056C37.3635 47.2729 37.2653 47.4529 37.2635 47.582C37.2508 53.1583 37.2435 58.7329 37.249 64.3092C37.249 65.3783 38.1817 66.2656 39.249 66.2638C42.5981 66.2583 45.9453 66.2492 49.2944 66.2474C50.8672 66.2474 52.4417 66.2638 54.0144 66.2674C54.989 66.2692 55.8217 65.5911 55.9908 64.6292C56.0508 64.2874 56.0308 63.9292 56.0308 63.5783C56.0308 55.6238 56.029 47.6692 56.0417 39.7147C56.0417 39.322 55.9308 39.2292 55.5562 39.2402C54.5381 39.2656 53.5181 39.2492 52.4981 39.2492C52.1235 39.2492 51.7472 39.2492 51.3435 39.2492C51.369 41.6529 50.3944 43.4202 48.0726 44.1347C45.9108 44.8002 44.1617 44.0001 42.8344 42.1892C41.6508 43.082 40.3581 43.3456 38.9053 42.9056H38.9017ZM34.8035 40.7456C34.8035 42.0165 34.7999 43.2874 34.8072 44.5583C34.8072 44.7692 34.8181 44.9911 34.8835 45.1892C35.0672 45.7529 35.629 46.0783 36.2217 45.9911C36.7908 45.9074 37.2363 45.4165 37.2435 44.8111C37.2581 43.7802 37.2472 42.7474 37.2526 41.7147C37.2526 41.5529 37.2617 41.3838 37.3072 41.2311C37.4508 40.7274 37.9926 40.502 38.4508 40.7492C38.5926 40.8256 38.7181 40.9365 38.849 41.0329C39.9272 41.8292 41.4872 41.5456 42.1872 40.4147C42.4272 40.0274 42.6581 39.6456 43.1981 39.7292C43.7217 39.8111 43.8235 40.2456 43.9472 40.662C44.3617 42.0456 45.6453 42.8474 47.1653 42.682C48.4399 42.542 49.5344 41.3911 49.6308 40.0656C49.6635 39.6147 49.6508 39.1601 49.6544 38.7074C49.6599 37.9002 49.9435 37.6111 50.7399 37.6111C52.3635 37.6111 53.9872 37.6002 55.6108 37.6202C55.9126 37.6238 56.069 37.5038 56.2017 37.2692C56.6981 36.4001 56.5453 35.3201 55.8181 34.5983C55.0853 33.8711 53.9453 33.7311 53.0326 34.2565C52.2708 34.6947 51.9672 34.6147 51.4981 33.8583C50.8453 32.8056 49.609 32.2438 48.4144 32.5474C47.929 32.6692 47.4817 32.9547 47.029 33.1892C46.5726 33.4256 46.1181 33.3165 45.8708 32.8692C45.8035 32.7492 45.7563 32.6183 45.7035 32.4911C44.9508 30.7038 42.6326 30.1383 41.1581 31.3947C40.1744 32.2329 39.9163 33.2965 40.2217 34.5274C40.3217 34.9329 40.1999 35.2511 39.8908 35.4474C39.5599 35.6583 39.2235 35.6256 38.8853 35.3492C38.7199 35.2147 38.569 35.0565 38.3908 34.9438C37.6272 34.4602 36.8272 34.4074 36.029 34.8329C35.2144 35.2656 34.8144 35.9783 34.8072 36.8965C34.7963 38.1801 34.8053 39.4638 34.8035 40.7474V40.7456ZM57.6763 61.8438C59.3417 61.8438 60.9653 61.8856 62.5872 61.8292C63.6181 61.7929 64.3326 61.1947 64.7453 60.2456C65.0981 59.4329 65.1999 58.5783 65.1999 57.7038C65.2035 54.4311 65.2217 51.1583 65.1999 47.8856C65.1963 47.2129 65.1199 46.5256 64.9635 45.8729C64.6035 44.3711 63.6472 43.6601 62.1072 43.6583C60.7599 43.6565 59.4126 43.6583 58.0653 43.6583C57.9435 43.6583 57.8217 43.6583 57.6799 43.6583V46.5565C58.3144 46.5565 58.9272 46.5529 59.5399 46.5565C61.1835 46.5711 62.1453 47.3511 62.4872 48.9547C62.5472 49.2365 62.5999 49.5274 62.5999 49.8129C62.5963 51.9147 62.6217 54.0165 62.5508 56.1165C62.5035 57.5365 61.6835 58.5401 60.4599 58.842C60.0872 58.9329 59.6872 58.9238 59.2981 58.9329C58.7617 58.9474 58.2253 58.9365 57.6744 58.9365V61.8474L57.6763 61.8438ZM57.689 57.3092C58.4253 57.3092 59.129 57.3238 59.8308 57.3038C60.3199 57.2911 60.6635 57.0238 60.8126 56.5583C60.8963 56.2983 60.9617 56.0201 60.9635 55.7492C60.9763 53.7511 60.9763 51.7511 60.9635 49.7529C60.9617 49.4711 60.8908 49.1783 60.7981 48.9092C60.6617 48.5111 60.3635 48.242 59.9344 48.2256C59.1963 48.2001 58.4581 48.2183 57.6908 48.2183V57.3092H57.689Z" fill="white"/>
    <path d="M41.6291 53.5636C41.6291 55.7017 41.6291 57.8399 41.6291 59.9781C41.6291 60.1163 41.6345 60.2563 41.6127 60.3927C41.5473 60.8072 41.2018 61.1036 40.8055 61.0981C40.42 61.0945 40.1036 60.8217 40.0273 60.4127C40 60.2654 39.9891 60.1145 39.9891 59.9636C39.9873 55.6999 39.9891 51.4363 39.9891 47.1708C39.9891 46.4308 40.2673 46.0454 40.8018 46.0363C41.3491 46.0272 41.6309 46.4145 41.6309 47.1836C41.6309 49.309 41.6309 51.4345 41.6309 53.5599L41.6291 53.5636Z" fill="white"/>
    <path d="M43.884 53.5652C43.884 51.3761 43.8822 49.1889 43.884 46.9998C43.884 46.3452 44.2603 45.9743 44.8185 46.0561C45.1694 46.107 45.3876 46.3125 45.4694 46.6489C45.5112 46.818 45.5167 46.998 45.5167 47.1725C45.5185 51.4361 45.5185 55.6998 45.5167 59.9634C45.5167 60.0889 45.5149 60.2161 45.4967 60.3398C45.4331 60.8052 45.0894 61.118 44.6676 61.0998C44.2349 61.0816 43.9003 60.7543 43.8894 60.2834C43.8712 59.5034 43.8822 58.7234 43.8822 57.9452C43.8822 56.4871 43.8822 55.0271 43.8822 53.5689L43.884 53.5652Z" fill="white"/>
    <path d="M47.7617 53.5474C47.7617 51.422 47.7617 49.2965 47.7635 47.171C47.7635 46.9965 47.7781 46.8183 47.8163 46.6492C47.8981 46.2856 48.209 46.0456 48.5781 46.0401C48.929 46.0347 49.2472 46.251 49.3417 46.5947C49.3908 46.7729 49.4017 46.9656 49.4035 47.1529C49.4072 51.4292 49.4054 55.7056 49.4054 59.982C49.4054 60.7129 49.1108 61.1074 48.5763 61.0983C48.0435 61.0892 47.7617 60.6983 47.7617 59.962C47.7617 57.8238 47.7617 55.6856 47.7617 53.5474Z" fill="white"/>
    <path d="M53.258 53.5673C53.258 55.7055 53.258 57.8437 53.258 59.9819C53.258 60.12 53.2616 60.26 53.238 60.3946C53.1653 60.8128 52.8234 61.1037 52.4289 61.0964C52.0434 61.0891 51.7307 60.8164 51.6544 60.4073C51.6289 60.2728 51.618 60.1328 51.618 59.9964C51.618 55.7073 51.6162 51.4182 51.618 47.1291C51.618 46.5237 51.8144 46.18 52.2107 46.071C52.7616 45.9219 53.2271 46.2782 53.2544 46.8873C53.2725 47.2764 53.258 47.6673 53.258 48.0564C53.258 49.8928 53.258 51.7291 53.258 53.5655V53.5673Z" fill="white"/>
    <path d="M62.5828 61.8275C63.6137 61.7912 64.3282 61.193 64.741 60.2439C64.9446 59.7766 65.061 59.2948 65.1264 58.8039C64.3282 58.2821 63.5246 57.7766 62.1664 57.5566C61.8046 58.2039 61.2082 58.6548 60.4573 58.8385C60.0846 58.9294 59.6846 58.9203 59.2955 58.9294C58.7591 58.9439 58.2228 58.933 57.6719 58.933V61.8439C59.3373 61.8439 60.961 61.8857 62.5828 61.8294V61.8275Z" fill="#5371FF"/>
    <path d="M70.1902 60.337C68.5539 60.337 67.4884 60.0661 66.6521 59.6898C66.583 60.0079 66.4921 60.3225 66.3775 60.6334C65.683 62.5007 64.2321 63.477 62.1139 63.4934C60.7793 63.5043 59.4448 63.4952 58.1121 63.4952C57.9757 63.4952 57.8393 63.4952 57.6921 63.4952C57.6557 64.0025 57.6721 64.4861 57.5793 64.9461C57.5684 64.9988 57.5557 65.0498 57.543 65.1007C58.4175 64.8443 59.4121 64.6752 60.6102 64.6752C65.5684 64.6752 64.843 67.5716 70.1921 67.5716C73.7557 67.5716 74.8466 66.2861 76.7266 65.4279C78.1466 62.9661 79.2339 60.2879 79.9321 57.457C75.3302 57.6788 75.3193 60.337 70.1939 60.337H70.1902Z" fill="#5371FF"/>
    <path d="M35.7973 65.4586C35.6919 65.1259 35.6373 64.7677 35.6355 64.3877C35.63 62.3568 35.6282 60.3277 35.6264 58.2968C33.6555 59.1513 32.4464 60.3349 29.9173 60.3349C26.1228 60.3349 23.201 57.6713 20.0664 57.4531C20.7828 60.3604 21.9119 63.104 23.3864 65.6204C25.3937 66.4659 27.4755 67.5695 29.9173 67.5695C32.5191 67.5695 33.7246 66.3149 35.7973 65.4568V65.4586Z" fill="#5371FF"/>
    <path d="M60.6132 71.0391C55.655 71.0391 54.1514 73.9354 50.3641 73.9354C46.5768 73.9354 45.5168 71.0391 40.0587 71.0391C34.6005 71.0391 33.9568 73.6554 30.4805 73.9136C34.5296 77.23 39.4405 79.5354 44.8241 80.4463C46.5077 80.7318 48.2368 80.8809 50.0023 80.8809C51.7677 80.8809 53.4968 80.73 55.1805 80.4463C60.5623 79.5354 65.4696 77.2318 69.5187 73.9172C64.9041 73.6809 65.3496 71.0391 60.6132 71.0391Z" fill="#5371FF"/>
    <path d="M70.1922 67.5712C64.8449 67.5712 65.5685 64.6748 60.6104 64.6748C59.414 64.6748 58.4176 64.8439 57.5431 65.1003C57.2013 66.5384 56.2649 67.4239 54.814 67.8021C54.7213 67.8257 54.6304 67.8657 54.5394 67.8966H38.8285C38.354 67.8966 37.6704 67.5294 37.1776 67.213C36.4922 66.773 36.0249 66.1748 35.7976 65.4584C33.7231 66.3166 32.5194 67.5712 29.9176 67.5712C27.4758 67.5712 25.3958 66.4675 23.3867 65.6221C25.2449 68.7912 27.6504 71.5984 30.4776 73.913C33.954 73.6548 34.8667 71.0384 40.0558 71.0384C45.5158 71.0384 46.574 73.9348 50.3613 73.9348C54.1485 73.9348 55.654 71.0384 60.6104 71.0384C65.5667 71.0384 64.9013 73.6803 69.5158 73.9166C72.4013 71.553 74.8522 68.6766 76.7267 65.4275C74.8467 66.2857 73.7558 67.5712 70.1922 67.5712Z" fill="#004AAC"/>
  </g>
  <defs>
    <clipPath id="clip0_2897_7054">
      <rect width="100" height="100" fill="white"/>
    </clipPath>
  </defs>
</svg>